<svg width="44" height="44" viewBox="0 0 44 44" fill="none" xmlns="http://www.w3.org/2000/svg">
<circle cx="22" cy="22" r="21" stroke="white" stroke-width="2"/>
<circle cx="22.0639" cy="22.0639" r="7.88298" stroke="white" stroke-width="3"/>
<path d="M20.2764 10H23.8509L24.7445 13.5745H19.3828L20.2764 10Z" fill="white"/>
<path d="M23.851 34.1277L20.2765 34.1277L19.3829 30.5532L24.7446 30.5532L23.851 34.1277Z" fill="white"/>
<path d="M10 23.851L10 20.2765L13.5745 19.3829L13.5745 24.7446L10 23.851Z" fill="white"/>
<path d="M34.1277 20.2764L34.1277 23.8509L30.5532 24.7445L30.5532 19.3828L34.1277 20.2764Z" fill="white"/>
<path d="M29.3304 12.2696L31.8579 14.7971L29.9623 17.9565L26.171 14.1652L29.3304 12.2696Z" fill="white"/>
<path d="M14.7973 31.8581L12.2698 29.3306L14.1654 26.1712L17.9567 29.9625L14.7973 31.8581Z" fill="white"/>
<path d="M12.2696 14.7973L14.7971 12.2698L17.9565 14.1654L14.1652 17.9567L12.2696 14.7973Z" fill="white"/>
<path d="M31.8581 29.3304L29.3306 31.8579L26.1712 29.9623L29.9625 26.171L31.8581 29.3304Z" fill="white"/>
</svg>
