<svg fill="none" height="41" viewBox="0 0 41 41" width="41" xmlns="http://www.w3.org/2000/svg"><path d="m20.1051 39.3155c-10.55924 0-19.1051-8.5458-19.1051-19.1051 0-10.55931 8.54586-19.10518 19.1051-19.10518 10.5593 0 19.1052 8.54587 19.1052 19.10518 0 10.5593-8.5459 19.1051-19.1052 19.1051z" stroke="#fff" stroke-miterlimit="10" stroke-width="2"/><path clip-rule="evenodd" d="m29.8454 16.0865c0-1.6464-1.3349-2.9813-2.9812-2.9813h-13.8829c-1.6464 0-2.9813 1.3349-2.9813 2.9813v7.9649c0 1.6463 1.3349 2.9812 2.9813 2.9812h13.9274c1.6463 0 2.9812-1.3349 2.9812-2.9812v-7.9649zm-11.8805 7.3419v-7.4754l5.651 3.7377z" fill="#fff" fill-rule="evenodd"/></svg>